<svg xmlns="http://www.w3.org/2000/svg" xmlns:xlink="http://www.w3.org/1999/xlink" width="88" height="88" viewBox="0 0 88 88">
  <defs>
    <filter id="Ellipse_82" x="0" y="0" width="88" height="88" filterUnits="userSpaceOnUse">
      <feOffset dy="3" input="SourceAlpha"/>
      <feGaussianBlur stdDeviation="3" result="blur"/>
      <feFlood flood-opacity="0.161"/>
      <feComposite operator="in" in2="blur"/>
      <feComposite in="SourceGraphic"/>
    </filter>
    <clipPath id="clip-path">
      <rect id="Rectangle_517" data-name="Rectangle 517" width="43.5" height="40" fill="#24584e"/>
    </clipPath>
  </defs>
  <g id="Group_71" data-name="Group 71" transform="translate(-3573 1169)">
    <g id="Group_70" data-name="Group 70" transform="translate(3324 -1429)">
      <g transform="matrix(1, 0, 0, 1, 249, 260)" filter="url(#Ellipse_82)">
        <circle id="Ellipse_82-2" data-name="Ellipse 82" cx="35" cy="35" r="35" transform="translate(9 6)" fill="#f8f3ef"/>
      </g>
      <g id="Group_67" data-name="Group 67" transform="translate(271 281)">
        <g id="Group_66" data-name="Group 66" clip-path="url(#clip-path)">
          <path id="Path_627" data-name="Path 627" d="M20,40a19.473,19.473,0,0,1-7.8-1.575A19.969,19.969,0,0,1,1.575,27.8,19.473,19.473,0,0,1,0,20a19.473,19.473,0,0,1,1.575-7.8A19.969,19.969,0,0,1,12.2,1.575,19.473,19.473,0,0,1,20,0,19.821,19.821,0,0,1,31.2,3.45a1.44,1.44,0,0,1,.675.95A1.271,1.271,0,0,1,31.6,5.5a1.389,1.389,0,0,1-1,.55,1.821,1.821,0,0,1-1.15-.3,17.179,17.179,0,0,0-4.5-2.05A17.576,17.576,0,0,0,20,3,16.4,16.4,0,0,0,7.941,7.941,16.4,16.4,0,0,0,3,20,16.4,16.4,0,0,0,7.946,32.059,16.431,16.431,0,0,0,20.017,37a16.6,16.6,0,0,0,2.733-.225,20.369,20.369,0,0,0,2.65-.625,1.814,1.814,0,0,1,1.225.025A1.439,1.439,0,0,1,27.45,37a1.38,1.38,0,0,1-.025,1.175,1.438,1.438,0,0,1-.875.775,18.515,18.515,0,0,1-3.25.8A21.955,21.955,0,0,1,20,40M34.5,29.5H30a1.449,1.449,0,0,1-1.069-.434,1.465,1.465,0,0,1-.431-1.075,1.437,1.437,0,0,1,.431-1.066A1.465,1.465,0,0,1,30,26.5h4.5V22a1.449,1.449,0,0,1,.434-1.069,1.465,1.465,0,0,1,1.075-.431,1.437,1.437,0,0,1,1.066.431A1.465,1.465,0,0,1,37.5,22v4.5H42a1.449,1.449,0,0,1,1.069.434,1.465,1.465,0,0,1,.431,1.075,1.437,1.437,0,0,1-.431,1.066A1.465,1.465,0,0,1,42,29.5H37.5V34a1.449,1.449,0,0,1-.434,1.069,1.465,1.465,0,0,1-1.075.431,1.437,1.437,0,0,1-1.066-.431A1.465,1.465,0,0,1,34.5,34ZM17.05,24.55l19.6-19.6a1.437,1.437,0,0,1,1.089-.45,1.632,1.632,0,0,1,1.161.475A1.5,1.5,0,0,1,39.4,6.1a1.582,1.582,0,0,1-.5,1.15L18.1,28.05a1.45,1.45,0,0,1-2.1,0L9.9,21.9a1.444,1.444,0,0,1-.425-1.125,1.632,1.632,0,0,1,.467-1.125,1.511,1.511,0,0,1,1.125-.45,1.537,1.537,0,0,1,1.133.45Z" fill="#24584e"/>
        </g>
      </g>
    </g>
  </g>
</svg>
